<?xml version="1.0" encoding="UTF-8"?>
<svg id="Capa_1" xmlns="http://www.w3.org/2000/svg" version="1.1" viewBox="0 0 1000 1000">
  <!-- Generator: Adobe Illustrator 29.2.1, SVG Export Plug-In . SVG Version: 2.1.0 Build 116)  -->
  <defs>
    <style>
      .st0 {
        fill: #ea363f;
      }

      .st1 {
        fill: #1f1d49;
      }

      .st2 {
        fill: #1d1d1b;
      }
    </style>
  </defs>
  <path class="st0" d="M933.8,226.9l-107.6-2.1c-4.8,0-6.6,6.3-2.4,8.7l34.5,20.2c1.9,1.1,2.8,3.5,2,5.6l-15.8,43.5c-1.6,4.5,3.8,8.2,7.4,5.1l84.8-72.8c3.2-2.8,1.3-8.1-2.9-8.2h0Z"/>
  <path class="st1" d="M824.1,522.1h-258.2c-5.5,0-10.7,2.6-13.9,7l-171.7,230.5c-8.5,11.4-.4,27.6,13.8,27.7l257.8,2.4c5.6,0,10.8-2.6,14.1-7.1l172-232.9c8.5-11.5.3-27.7-14-27.7h0Z"/>
  <path class="st2" d="M208.7,710.2c.2-.3.5-.6.7-.8-11.7,10.9-8.5,8.1-.7.8Z"/>
  <path class="st1" d="M743.3,328.3c-38.3,18.9-121.2,61.7-214.1,121.1l25.8,35.7c2.5,3.5,6.6,5.5,10.9,5.4l262.7-5.6c10.5-.2,16.5-12.1,10.4-20.7l-95.7-135.9h0Z"/>
  <path class="st1" d="M248.3,699.8c2.2-1.8,4.9-3.7,7.7-3,2,.5,3.4,2.2,4.7,3.9,14.9,19.6,25.4,43,44.1,59.1,7.3,6.2,16.6,11.4,26.1,9.6,9.7-1.9,16.5-10.5,22.4-18.5,53.7-73.7,107.5-147.3,161.2-221,6.5-8.8,13.2-18.6,12.9-29.5-.3-10.6-7.1-19.8-14-27.8-2.1-2.4-4.4-4.9-7.5-5.6-4.2-1-8.4,1.4-12,3.7-65.9,42.6-128.4,90.5-186.6,143.1-33.9,30.6-69.4,59.9-97.6,95.7-76.7,97.3-11.3,103.1-11.3,103.1-24.8-12.1-5.2-51.2-5.2-51.2,14.3-23.3,34.1-44.3,55.3-61.5h0Z"/>
  <path class="st0" d="M158.4,814.4c-22.7-28.9-12.2-70.6,72-156.5,29.4-29.9,67.7-65.2,116.7-107.2,42.6-36.4,90.2-71,138.4-102.7,9.7-6.4,19.4-12.6,29.2-18.8,78.6-49.7,156.6-91.2,215-120.4,58.4-29.2,97.2-46,97.2-46-40.3,12.2-71,22.4-104.1,36.3l-56.3-79.9c-2.6-3.7-6.9-5.8-11.4-5.5l-261.8,13.2c-10.4.5-16.1,12.3-10,20.8l119.3,165c-10.3,5.7-20.3,11.4-30.2,17l-130.2-183.5c-8.5-12-26.3-12.1-34.9-.2l-176.9,244.8c-5.4,7.4-5.4,17.5-.1,25l67.6,95.9c22.7-20.9,54.9-43.1,84.8-62.1,42.9-27.1,81.3-47.5,81.3-47.5-40,31-99.5,76.4-155.1,125.4-87.7,77.3-165.9,163.5-143.3,216.4,36.9,86.5,298.4-35.5,298.4-35.5-15.8,4.6-175,45-205.6,5.9h0ZM248.9,503.1l-18.8,12c-.6.4-1.1.9-1.3,1.5l-9.7,20.7c-1.3,2.9-5.4,2.8-6.7,0l-9.2-20.9c-.3-.6-.7-1.2-1.3-1.6l-18.5-12.5c-2.2-1.5-2.2-4.7,0-6.2l18.8-12c.6-.4,1.1-.9,1.3-1.5l9.7-20.7c1.3-2.9,5.4-2.8,6.7,0l9.2,20.9c.3.6.7,1.2,1.3,1.6l18.5,12.5c2.2,1.5,2.2,4.7,0,6.2h0ZM295,403.2l-10.7,6.8c-.3.2-.6.5-.8.9l-5.5,11.8c-.8,1.6-3.1,1.6-3.8,0l-5.3-11.9c-.2-.4-.4-.7-.8-.9l-10.5-7.1c-1.3-.8-1.2-2.7,0-3.5l10.7-6.8c.3-.2.6-.5.8-.9l5.5-11.8c.8-1.6,3.1-1.6,3.8,0l5.3,11.9c.2.4.4.7.8.9l10.5,7.1c1.3.8,1.2,2.7,0,3.5ZM332.9,478.3l-6.4,4.1c-.2.1-.4.3-.5.5l-3.3,7c-.5,1-1.8,1-2.3,0l-3.1-7.1c0-.2-.3-.4-.4-.5l-6.3-4.2c-.8-.5-.7-1.6,0-2.1l6.4-4.1c.2-.1.4-.3.5-.5l3.3-7c.5-1,1.8-1,2.3,0l3.1,7.1c0,.2.3.4.4.5l6.3,4.2c.8.5.7,1.6,0,2.1Z"/>
</svg>